<svg width="24" height="20" viewBox="0 0 24 20" fill="none" xmlns="http://www.w3.org/2000/svg">
<path d="M0.0380154 10.1854C-0.0392818 9.99839 0.00374985 9.78324 0.146999 9.64036L9.147 0.640361C9.34561 0.448502 9.66216 0.454033 9.85402 0.652643C10.0411 0.846424 10.0411 1.1536 9.85402 1.34733L1.707 9.49435H23.5C23.7761 9.49439 24 9.71827 24 9.99441C24 10.2705 23.7761 10.4944 23.5 10.4944H1.707L9.85298 18.6404C10.0516 18.8323 10.0571 19.1488 9.86527 19.3474C9.67341 19.546 9.35691 19.5515 9.15825 19.3597C9.15408 19.3557 9.15 19.3516 9.14597 19.3474L0.145969 10.3474C0.0997505 10.301 0.0630474 10.2459 0.0380154 10.1854Z" fill="#2196F3"/>
</svg>
